{"title":"The Resurrected 1992 Dan O´Bannon H.P. Lovecraft","uid":8891485,"size":1172229090,"categoryP":"video","categoryS":"movies","magnet":"?xt=urn:btih:a5928ddd4d1e61cf42fe2425dd3e26de709f2092&amp;dn=The+Resurrected+1992+Dan+O%26acute%3BBannon+H.P.+Lovecraft&amp;tr=udp%3A%2F%2Ftracker.openbittorrent.com%3A80&amp;tr=udp%3A%2F%2Fopen.demonii.com%3A1337&amp;tr=udp%3A%2F%2Ftracker.coppersurfer.tk%3A6969&amp;tr=udp%3A%2F%2Fexodus.desync.com%3A6969","seeders":0,"leechers":2,"uploader":"mago1974","files":2,"time":1378592934,"description":"General\nUnique ID                      : 184787759715996006157764023004387948730 (0x8B04D3F67403448599828514DCD938BA)\nComplete name                  : E:Torrents MKO1992. The ResurrectedThe.Resurrected.1992.DVDRip.x264-ShitBusters.mkv\nFormat                         : Matroska\nFormat version                 : Version 2\nFile size                      : 1.09 GiB\nDuration                       : 1h 45mn\nOverall bit rate               : 1 485 Kbps\nEncoded date                   : UTC 2010-02-03 09:15:39\nWriting application            : mkvmerge v3.1.0 ('Happy up here') built on Jan 19 2010 12:09:24\nWriting library                : libebml v0.7.9 + libmatroska v0.8.1\n\nVideo\nID                             : 1\nFormat                         : AVC\nFormat/Info                    : Advanced Video Codec\nFormat profile                 : &lt;a class=&quot;__cf_email__&quot; href=&quot;/cdn-cgi/l/email-protection&quot; data-cfemail=&quot;4c04252b240c0078627d&quot;&gt;[email&amp;#160;protected]&lt;/a&gt;&lt;script cf-hash='f9e31' type=&quot;text/javascript&quot;&gt;\n/* &lt;![CDATA[ */!function(){try{var t=&quot;currentScript&quot;in document?document.currentScript:function(){for(var t=document.getElementsByTagName(&quot;script&quot;),e=t.length;e--;)if(t[e].getAttribute(&quot;cf-hash&quot;))return t[e]}();if(t&amp;&amp;t.previousSibling){var e,r,n,i,c=t.previousSibling,a=c.getAttribute(&quot;data-cfemail&quot;);if(a){for(e=&quot;&quot;,r=parseInt(a.substr(0,2),16),n=2;a.length-n;n+=2)i=parseInt(a.substr(n,2),16)^r,e+=String.fromCharCode(i);e=document.createTextNode(e),c.parentNode.replaceChild(e,c)}}}catch(u){}}();/* ]]&gt; */&lt;/script&gt;\nFormat settings, CABAC         : Yes\nFormat settings, ReFrames      : 16 frames\nCodec ID                       : V_MPEG4/ISO/AVC\nDuration                       : 1h 45mn\nBit rate                       : 1 291 Kbps\nWidth                          : 720 pixels\nHeight                         : 480 pixels\nDisplay aspect ratio           : 4:3\nFrame rate mode                : Constant\nFrame rate                     : 23.976 fps\nStandard                       : NTSC\nColor space                    : YUV\nChroma subsampling             : 4:2:0\nBit depth                      : 8 bits\nScan type                      : Progressive\nBits/(Pixel*Frame)             : 0.156\nStream size                    : 951 MiB (85%)\nTitle                          : The Resurrected (1992)\nWriting library                : x264 core 84 r1416 fcf70c2\nEncoding settings              : cabac=1 // deblock=1:-2:-1 / analyse=0x3:0x133 / me=umh / subme=10 / psy=1 / psy_rd=1.2:0.2 // me_range=24 / chroma_me=1 / trellis=2 / 8x8dct=1 / cqm=0 / deadzone=21,11 / fast_pskip=0 / chroma_qp_offset=-3 / threads=3 / sliced_threads=0 / nr=0 / decimate=0 / mbaff=0 / constrained_intra=0 / bframes=8 / b_pyramid=2 / b_adapt=2 / b_bias=0 / direct=3 / wpredb=1 / wpredp=2 / keyint=250 / keyint_min=25 / scenecut=40 / intra_refresh=0 / rc_lookahead=60 / rc=2pass / mbtree=1 / bitrate=1291 / ratetol=1.0 / qcomp=0.60 / qpmin=10 / qpmax=51 / qpstep=4 / cplxblur=20.0 / qblur=0.5 / ip_ratio=1.40 / aq=1:0.80\nDefault                        : No\nForced                         : No\n\nAudio\nID                             : 2\nFormat                         : AC-3\nFormat/Info                    : Audio Coding 3\nMode extension                 : CM (complete main)\nFormat settings, Endianness    : Big\nCodec ID                       : A_AC3\nDuration                       : 1h 45mn\nBit rate mode                  : Constant\nBit rate                       : 192 Kbps\nChannel(s)                     : 2 channels\nChannel positions              : Front: L R\nSampling rate                  : 48.0 KHz\nBit depth                      : 16 bits\nCompression mode               : Lossy\nStream size                    : 145 MiB (13%)\nTitle                          : English Audio (AC3 @ 192 kbps, 2 channels)\nLanguage                       : English\nDefault                        : Yes\nForced                         : No\n","torrent":{"xt":"urn:btih:a5928ddd4d1e61cf42fe2425dd3e26de709f2092","amp;dn":"The+Resurrected+1992+Dan+O%26acute%3BBannon+H.P.+Lovecraft","amp;tr":["udp%3A%2F%2Ftracker.openbittorrent.com%3A80","udp%3A%2F%2Fopen.demonii.com%3A1337","udp%3A%2F%2Ftracker.coppersurfer.tk%3A6969","udp%3A%2F%2Fexodus.desync.com%3A6969"],"infoHash":"a5928ddd4d1e61cf42fe2425dd3e26de709f2092","infoHashBuffer":{"type":"Buffer","data":[165,146,141,221,77,30,97,207,66,254,36,37,221,62,38,222,112,159,32,146]},"announce":[],"urlList":[]}}